<?xml version="1.0" encoding="UTF-8" standalone="no"?>
<svg
   width="64"
   height="64"
   viewBox="0 0 32 32"
   version="1.1"
   id="svg6"
   sodipodi:docname="yeshua.svg"
   xml:space="preserve"
   inkscape:version="1.4.2 (ebf0e940, 2025-05-08)"
   xmlns:inkscape="http://www.inkscape.org/namespaces/inkscape"
   xmlns:sodipodi="http://sodipodi.sourceforge.net/DTD/sodipodi-0.dtd"
   xmlns="http://www.w3.org/2000/svg"
   xmlns:svg="http://www.w3.org/2000/svg"><defs
     id="defs6" /><sodipodi:namedview
     id="namedview6"
     pagecolor="#ffffff"
     bordercolor="#000000"
     borderopacity="0.25"
     inkscape:showpageshadow="2"
     inkscape:pageopacity="0.0"
     inkscape:pagecheckerboard="0"
     inkscape:deskcolor="#d1d1d1"
     inkscape:zoom="4.1695371"
     inkscape:cx="33.696786"
     inkscape:cy="21.345295"
     inkscape:window-width="1616"
     inkscape:window-height="741"
     inkscape:window-x="2160"
     inkscape:window-y="101"
     inkscape:window-maximized="0"
     inkscape:current-layer="Gemini_Generated_Image_cevssncevssncevs.png" /><g
     style="clip-rule:evenodd;fill-rule:evenodd;stroke-linejoin:round;stroke-miterlimit:2;fill:#000000"
     id="g7"
     transform="matrix(0.02628714,0,0,0.02628714,2.3920452,10.893475)"><g
       transform="translate(-640,-653)"
       id="g24"
       style="fill:#000000">
        <g
   id="Gemini_Generated_Image_cevssncevssncevs.png"
   transform="matrix(1.017577,0,0,1.017577,640,653)"
   style="fill:#000000">
            <path
   d="m 438.5,0 c 0.546,0.1 0.502,1.195 1.048,1.295 5.19,0.951 5.219,-0.012 65.952,-0.012 143.999,0 143.998,0 144,0 0.533,-0.098 0.467,-1.185 1,-1.283 h 1 c -0.104,1.156 -0.455,5.052 -0.248,14.509 0.041,1.886 2.162,2.495 2.253,2.562 -0.271,0.22 -0.773,-0.148 -1.044,0.071 -0.284,0.23 -0.077,0.784 -0.334,1.044 -0.456,0.462 -0.655,-0.152 -0.993,0.3 -0.35,0.467 0.349,0.56 -0.004,1.031 -2.33,-3.066 -2.853,-2.258 -6.631,-2.255 -169.306,0.143 -169.297,-0.232 -184.016,0.024 -4.548,0.079 -1.22,16.317 -2.668,19.405 -0.889,1.894 -51.14,0.705 -96.312,0.948 -4.395,0.023 -1.881,11.246 -2.605,18.98 -0.229,2.456 -1.76,1.202 -56.405,1.454 -4.036,0.018 -2.755,4.466 -2.829,17.434 -0.027,4.697 -9.256,2.328 -18.182,2.89 -2.915,0.183 -1.436,1.803 -1.734,18.12 -0.059,3.226 -2.403,2.202 -35.246,2.308 -7.588,0.025 -3.74,4.166 -4.243,18.639 -0.09,2.576 -4.185,1.645 -36.766,1.768 -5.574,0.021 -2.688,3.205 -3.032,18.265 -0.064,2.843 -1.704,1.556 -17.937,2.155 -3.448,0.127 -1.172,16.144 -1.91,18.884 -0.717,2.661 -15.344,0.831 -18.229,1.476 -2.411,0.539 -1.564,6.158 -1.63,17.496 -0.022,3.788 -2.161,2.095 -18.284,2.816 -2.297,0.103 -1.247,1.435 -1.72,18.201 -0.129,4.571 -18.131,0.325 -19.875,3.14 -0.471,0.76 -0.256,37.322 -0.211,37.803 0.296,3.173 21.388,1.218 37.871,1.724 3.778,0.117 1.866,2.219 2.214,18.285 0.067,3.068 1.82,1.61 17.748,2.04 3.151,0.086 1.956,7.887 2.02,17.983 0.024,3.66 7.062,2.181 17.951,2.373 2.739,0.048 1.866,6.192 1.923,17.63 0.02,4.015 5.733,2.693 17.117,2.736 4.852,0.019 2.425,2.799 2.846,18.273 0.082,2.997 3.333,1.985 35.145,2.111 6.041,0.024 4.21,3.64 4.32,17.87 0.028,3.573 2.026,1.929 17.722,2.545 5.007,0.196 0.376,18.312 3.138,20.107 0.894,0.581 55.53,0.033 56.833,0.293 3.161,0.632 0.884,16.748 1.746,19.163 0.854,2.39 33.004,0.592 37.226,1.15 5.478,0.724 -0.373,20.023 4.062,20.427 0.113,0.01 35.873,0.022 35.928,0.018 4.601,-0.318 0.074,-18.715 3.165,-20.301 1.434,-0.736 32.98,-0.2 35.847,-0.151 3.278,0.056 2.454,4.214 2.443,20.758 -0.012,16.959 -1.256,20.253 3.567,20.25 44.629,-0.032 165.528,0.056 168.031,-0.081 3.533,-0.193 0.528,-18.124 2.273,-19.902 1.392,-1.419 75.571,0.041 77.926,-0.788 2.449,-0.862 0.259,-18.096 1.648,-19.592 1.33,-1.433 55.007,-0.287 57.16,-0.681 3.207,-0.588 0.9,-16.841 1.817,-19.272 0.868,-2.3 34.75,-0.412 38.102,-1.123 3.131,-0.664 0.339,-18.125 2.044,-19.815 1.244,-1.232 36.16,0.118 38.162,-0.721 1.911,-0.802 0.36,-17.468 1.133,-19.138 1.04,-2.247 33.54,-0.506 37.723,-1.013 4.024,-0.487 0.646,-17.817 2.463,-19.689 1.407,-1.449 35.439,-0.507 38.52,-0.422 0.47,1.06 0.946,0.833 0.878,1.981 -0.075,1.277 0.237,1.211 -0.035,15.994 -0.073,4.005 -2.361,1.915 -17.821,2.268 -4.339,0.099 -1.13,17.222 -2.397,19.527 -0.976,1.774 -34.447,0.382 -37.685,0.858 -3.658,0.537 -0.966,16.443 -2.045,19.311 -0.866,2.304 -32.227,0.455 -37.879,1.12 -3.372,0.397 -1.165,16.351 -1.918,18.957 -0.797,2.762 -30.918,0.692 -38.023,1.379 -3.245,0.314 -0.457,17.692 -2.067,19.596 -1.259,1.487 -54.089,0.319 -57.043,0.732 -3.827,0.536 -0.633,17.988 -2.368,19.887 -1.201,1.314 -67.877,0.3 -76.581,0.596 -3.535,0.121 -2.104,11.372 -2.015,15.278 h -213 c -0.317,-12.463 -0.195,-12.399 -0.231,-13.476 -0.036,-1.08 -0.818,-1.547 -0.947,-1.624 -0.766,-0.458 -72.516,0.004 -76.854,-0.239 -3.278,-0.184 -0.392,-18.382 -2.144,-19.971 -1.186,-1.076 -52.437,-0.207 -56.802,-0.497 -4.142,-0.276 -1.006,-17.186 -2.4,-19.473 -1.181,-1.937 -34.956,-0.317 -37.694,-0.948 -3.261,-0.753 -0.811,-16.798 -1.86,-19.308 -0.817,-1.954 -28.332,-0.55 -37.07,-0.935 -3.355,-0.148 -2.156,-6.687 -2.226,-18.019 -0.02,-3.308 -1.926,-1.81 -17.748,-2.406 -3.177,-0.12 -2.074,-5.744 -2.175,-17.598 -0.035,-4.126 -2.296,-2.215 -17.884,-2.797 -3.619,-0.135 -1.113,-16.82 -2.098,-19.152 -0.969,-2.293 -34.418,-0.531 -37.866,-1.067 -3.592,-0.558 -0.621,-17.939 -2.179,-19.85 -0.97,-1.19 -38.047,-0.957 -38.837,-0.156 -1.306,1.325 -0.284,34.595 -0.616,38.059 -0.443,4.62 -17.283,0.597 -19.369,2.958 -0.906,1.024 -0.084,35.636 -0.52,38.096 -0.52,2.939 -7.071,1.798 -17.477,1.949 -3.419,0.049 -2.241,5.753 -2.358,17.938 -0.035,3.551 -7.148,2.198 -17.62,2.367 -4.052,0.065 -1.657,14.314 -2.336,18.6 -0.577,3.636 -5.399,0.569 -41.189,2.05 v -61 c 10.964,-1.086 10.983,0.825 19.44,-0.478 2.727,-0.42 1.656,-4.935 1.816,-37.527 0.022,-4.496 5.647,-3.205 15.24,-3.211 l 1.827,1.528 c 1.586,0.764 1.512,0.763 3.022,1.673 -0.055,3.574 -0.099,3.483 -0.107,7.015 -0.071,29.668 0.222,29.964 1.113,30.311 0.963,0.376 16.793,0.167 17.259,0.119 1.73,-0.176 1.489,-1.141 1.501,-38.45 0.935,-1.416 0.942,-1.368 2.386,-2.15 8.334,-0.042 8.28,-0.045 9,-0.045 5.599,-0.002 5.516,0.008 5.996,0.004 4.376,-0.035 2.164,-2.573 2.571,-24.794 0.225,-12.321 -1.407,-13.814 2.435,-15.974 6.744,0.013 15.179,0.103 15.966,-0.121 1.383,-0.393 1.837,-0.832 1.318,-17.928 -0.091,-2.993 -5.655,-2.169 -17.289,-2.14 -3.59,-2.682 -2.556,-3.39 -2.501,-11.831 0.082,-12.874 0.041,-12.788 0.09,-23.998 0.013,-3.043 -0.251,-3.424 2.414,-4.903 9.053,0.02 15.365,0.098 16.005,-0.095 1.385,-0.417 1.823,-0.853 1.288,-18.036 -0.092,-2.976 -5.711,-2.147 -17.296,-2.156 -0.865,-0.586 -1.73,-1.172 -2.595,-1.758 0.282,-18.575 0.032,-18.49 0.167,-37.083 1.078,-1.231 1.039,-1.152 2.431,-1.87 12.145,0.045 16.102,-0.265 17.028,0.881 0.537,0.663 0.36,9.226 0.365,12.018 0.01,5.394 -0.812,7.417 4.608,7.526 2.637,0.053 28.006,0.561 32.975,-0.014 3.988,-0.461 1.966,-2.481 2.267,-18.493 0.058,-3.126 1.812,-1.574 17.773,-1.877 3.336,-0.063 2.128,-7.324 2.24,-18.129 0.036,-3.444 7.343,-2.137 17.731,-2.271 4.188,-0.054 1.062,-17.032 2.444,-19.512 1.14,-2.047 34.726,-0.535 37.612,-0.998 3.528,-0.567 1.025,-16.357 1.928,-19.245 0.737,-2.356 16.387,-0.786 17.972,-1.303 3.452,-1.127 0.631,-17.665 2.175,-19.588 1.24,-1.543 33.295,-0.382 36.925,-0.734 4.393,-0.426 0.833,-17.58 2.664,-19.617 1.464,-1.629 54.536,-0.275 57.29,-0.776 3.519,-0.64 0.419,-18.144 2.16,-19.812 1.231,-1.178 93.234,-0.22 96.789,-0.582 2.012,-0.205 1.702,-1.115 2.057,-17.076 z"
   style="fill:#ffffff;fill-opacity:1"
   id="path1" />
            <path
   d="m 631.202,333.499 c 0,0.2 0.915,9.434 -1.742,9.606 -17.479,1.135 -17.902,-0.151 -18.018,-1.594 -0.592,-7.382 0.949,-119.297 -0.848,-120.158 -1.402,-0.673 -25.557,-0.119 -35.093,-0.294 -5.686,-0.105 -3.375,2.76 -3.368,8.44 0.04,31.731 -0.003,111.775 -0.022,111.954 -0.222,2.044 -1.271,1.677 -32.612,1.655 -0.543,-10e-4 -6.128,-0.005 -6.744,-0.784 -1.037,-1.31 -0.449,-106.559 -0.397,-115.825 0.021,-3.892 -0.736,-5.27 3.186,-5.66 2.33,-0.232 2.015,-1.42 1.989,-32.339 -0.095,-109.379 0.298,-109.425 0.446,-109.6 1.057,-1.258 37.93,-0.687 38.452,-0.285 0.651,0.503 0.938,0.627 0.968,55.885 0.035,64.079 -0.952,66.042 2.091,66.109 30.482,0.666 31.851,0.441 31.898,-2.116 0.281,-15.156 -0.529,-118.481 0.522,-119.633 0.241,-0.265 0.279,-0.705 16.594,-0.587 3.38,0.024 2.715,1.861 2.708,27.227 -0.003,76 -0.006,151.999 -0.01,227.999 z"
   style="fill:#ffffff"
   id="path2" />
            <path
   d="m 714.501,281.886 c 10.81,-0.013 16.1,0.854 16.141,-2.379 0.132,-10.48 0.009,-10.425 -0.056,-131.007 -0.026,-48.281 -0.324,-49.607 1.947,-49.708 17.175,-0.77 17.577,0.32 17.775,1.735 0.097,0.698 0.055,198.38 0.011,199.952 -0.069,2.539 -1.512,1.413 -17.816,2.04 -4.088,0.157 -0.036,18.865 -3.031,19.92 -2.578,0.908 -51.505,0.289 -55.983,0.233 -4.569,-0.058 -1.682,-13.691 -2.509,-18.252 -0.689,-3.804 -15.43,-1.197 -18.442,-2.045 -1.285,-0.362 -1.288,-5.393 -1.288,-5.874 -0.009,-17.282 -0.112,-212.558 -0.027,-216.021 0.057,-2.358 1.131,-2.431 17.289,-2.187 3.643,0.055 2.426,6.291 2.42,12.208 -0.015,15.123 -0.175,172.192 0.101,189.034 0.074,4.521 15.332,1.426 18.645,2.545 2.209,0.746 0.896,14.191 1.192,18.374 0.121,1.71 0.867,1.999 17.621,1.867 3.66,-0.028 2.209,-7.907 2.387,-17.815 0.062,-3.445 3.346,-2.573 3.623,-2.62 z"
   style="fill:#ffffff"
   id="path3" />
            <path
   d="m 653.505,17.071 c 34.128,0.132 93.368,-0.029 95.066,0.049 3.456,0.158 0.932,17.114 2.018,19.339 1.08,2.214 49.403,0.56 56.908,1.08 4.377,0.304 1.303,16.081 2.519,19.202 0.869,2.232 26.823,0.709 37.459,1.153 3.044,0.127 1.643,1.784 2.228,18.579 0.112,3.209 2.107,1.532 36.804,1.809 4.509,0.036 2.765,7.175 3.012,18.217 0.076,3.429 5.172,2.014 36.975,2.257 4.045,0.031 2.775,4.845 2.871,17.749 0.029,3.96 5.945,2.597 17.148,2.729 3.924,0.047 2.092,2.233 2.679,18.304 0.111,3.041 6.671,2.026 17.303,2.091 3.786,0.023 2.311,5.799 2.56,17.906 0.074,3.604 6.287,2.363 17.469,2.493 3.552,0.041 2.46,4.697 2.462,17.476 -0.793,1.825 -0.649,1.846 -1.477,2.938 -4.653,-0.348 -26.995,-0.072 -35.007,-0.157 -5.026,-0.053 -3.299,-4.688 -3.555,-17.814 -0.079,-4.043 -2.36,-2.083 -17.497,-2.55 -2.968,-0.091 -1.598,-1.718 -2.103,-18.406 -0.088,-2.915 -1.769,-1.511 -17.858,-1.9 -4.705,-0.114 -0.401,-18.102 -2.993,-20.108 -0.854,-0.661 -34.757,-0.09 -36.964,-0.297 -3.84,-0.361 -0.871,-17.57 -2.232,-19.585 -1.232,-1.822 -34.992,-0.313 -37.852,-0.899 -3.396,-0.696 -0.973,-16.451 -1.946,-19.227 -0.879,-2.507 -33.5,-0.533 -37.962,-1.232 -3.451,-0.541 -0.502,-17.93 -2.148,-19.666 -1.221,-1.288 -53.954,-0.223 -56.972,-0.653 -3.79,-0.539 -0.826,-17.595 -2.102,-19.349 -1.432,-1.968 -57.398,-0.503 -76.831,-0.962 -2.934,-0.069 -2.263,-3.191 -2.357,-18.12 0.353,-0.471 -0.346,-0.564 0.004,-1.031 0.338,-0.452 0.537,0.162 0.993,-0.3 0.257,-0.26 0.05,-0.814 0.334,-1.044 0.271,-0.219 0.773,0.149 1.044,-0.071 z"
   style="fill:#ffffff"
   id="path4" />
            <path
   d="m 898.498,281.931 c -0.148,0 -8.981,1.299 -9.034,-2.429 -0.513,-36.282 0.71,-37.791 -1.946,-38.139 -0.296,-0.038 -55.177,-0.044 -56.039,0.035 -2.452,0.227 -1.676,5.799 -1.71,19.103 -0.106,40.785 -0.268,40.794 -0.334,40.966 -0.39,1.027 -6.374,1.021 -6.935,1.02 -30.965,-0.028 -32.353,0.582 -32.521,-2.038 -0.041,-0.643 10e-4,-36.435 0.092,-37.033 0.602,-3.932 17.029,-0.697 19.132,-2.302 1.563,-1.192 0.289,-56.71 0.705,-58.567 0.798,-3.563 2.46,-1.69 17.596,-1.982 4.305,-0.083 1.997,-2.748 2.23,-38.057 0.026,-3.878 2.229,-2.034 17.825,-2.556 2.565,-0.086 1.417,-1.547 1.961,-18.45 0.08,-2.48 5.036,-1.869 16.978,-1.849 4.595,0.007 3.036,5.012 3.174,17.839 0.048,4.458 11.619,1.876 17.896,2.549 2.295,0.246 1.951,1.458 1.91,37.459 -0.006,5.01 2.822,2.587 18.009,3.127 1.819,0.064 1.823,2.605 1.823,2.877 0.011,6.157 0.123,73.82 -0.015,76.96 -0.098,2.217 -7.789,1.475 -10.797,1.467 z"
   style="fill:#ffffff"
   id="path5" />
            <path
   d="m 358.93,253.5 c 0.002,3.756 0.036,46.924 0.04,46.945 0.723,3.289 2.458,1.57 50.531,1.821 3.035,0.016 3.729,0.149 3.772,3.239 0.233,16.528 -0.217,17.121 -1.745,17.185 -0.028,10e-4 -69.853,0.028 -70.048,0.022 -2.947,-0.089 -2.282,-1.778 -2.295,-39.212 -0.06,-174.724 -0.163,-174.717 -0.055,-182.012 0.049,-3.291 1.83,-2.744 36.37,-2.764 41.708,-0.023 42.784,-0.244 43.016,1.773 0.104,0.897 0.105,15.725 0.028,17.012 -0.124,2.073 -1.387,1.713 -55.044,1.7 -6.42,-0.002 -4.518,2.904 -4.464,9.287 0.19,22.801 -0.829,70.692 0.647,71.76 1.808,1.309 37.115,-1.009 38.744,1.285 0.115,0.161 1.357,18.482 -0.776,19.275 -3.041,1.13 -37.957,-1.377 -38.545,1.552 -0.262,1.305 -0.023,17.002 -0.176,31.132 z"
   style="fill:#ffffff"
   id="path6" />
            <path
   d="m 498.033,96.521 c -0.995,1.472 -1.01,1.414 -2.533,2.294 -8.564,-0.002 -16.127,-0.273 -16.985,0.699 -1.01,1.145 -0.493,1.373 -0.653,17 -0.061,5.936 -18.305,0.386 -19.5,3.931 -0.5,1.482 -0.277,52.498 -0.257,57.064 0.018,4.148 6.584,2.654 17.403,2.81 3.11,0.044 1.733,1.779 2.373,18.163 0.119,3.07 5.95,2.092 17.616,2.165 3.933,0.025 2.062,2.245 2.486,17.843 0.16,5.895 14.573,-0.958 14.692,5.003 0.002,0.113 0.058,95.584 0.027,97.023 -0.07,3.15 -7.313,2.182 -12.202,2.174 -4.308,-0.006 -5.024,1.26 -7.687,-2.173 0.14,-29.894 -0.03,-41.155 0.062,-76.014 0.013,-4.621 -4.842,-3.068 -17.367,-3.189 -3.975,-0.039 -2.443,-7.209 -2.617,-17.834 -0.058,-3.539 -7.154,-2.37 -12.373,-2.418 -4.144,-0.037 -2.022,-11.54 -2.478,-18.509 -0.31,-4.729 -19.294,0.964 -19.654,-4.041 -0.109,-1.521 -0.033,-83.73 -0.026,-91.01 0.005,-5.965 -1.851,-8.689 4.142,-8.746 11.995,-0.115 11.973,-0.012 13.014,-0.03 5.368,-0.094 -0.182,-19.411 3.946,-20.377 1.886,-0.442 33.165,-0.108 36.049,-0.078 3.088,0.033 2.501,1.569 2.522,18.25 z"
   style="fill:#ffffff"
   id="path7" />
            <path
   d="m 279.836,287.499 c -0.017,8.781 0.935,14.955 -2.336,14.993 -16.081,0.186 -17.646,0.334 -17.654,-2.996 -0.176,-76.464 0.906,-77.566 -1.241,-78.264 -3.69,-1.2 -18.391,2.233 -18.457,-2.71 -0.476,-35.562 1.594,-38.158 -2.636,-38.218 -9.13,-0.129 -16.988,0.864 -17.175,-1.774 -0.109,-1.544 -0.024,-36.972 -0.014,-37.049 0.276,-2.134 2.026,-1.994 17.173,-1.843 4.239,0.042 2.571,7.335 2.756,17.875 0.059,3.341 1.944,1.837 17.233,2.451 3.07,0.124 2.314,1.744 2.337,26.539 0.006,6.961 -1.236,14.088 2.674,14.107 15.072,0.073 17.141,0.409 17.2,-2.096 0.266,-11.288 -0.661,-36.812 0.745,-38.09 1.374,-1.249 18.544,1.058 19.014,-1.935 0.668,-4.258 -0.951,-38.147 1.037,-39.005 0.924,-0.398 17.404,-0.399 17.998,0.035 1.235,0.902 0.917,1.319 0.949,50.981 0,0.116 1.007,9.69 -1.963,9.773 -15.778,0.443 -17.789,-1.255 -17.85,2.236 -0.63,35.671 1.63,38.496 -3.133,38.561 -14.966,0.206 -16.397,-1.266 -16.646,1.49 -0.051,0.558 -0.029,53.3 -0.011,64.939 z"
   style="fill:#ffffff"
   id="path8" />
            <path
   d="m 0,98.5 v -61 c 30.045,0.094 38.764,-0.024 39.487,0.084 3.456,0.517 1.17,16.112 1.961,18.932 0.802,2.856 17.657,0.342 19.131,1.905 0.554,0.588 0.552,7.43 0.552,8.077 -0.006,16.238 0.042,27.625 0.052,30.027 -1.206,2.05 -1.021,2.231 -1.67,2.343 -1.262,0.22 -1.177,-0.02 -16.016,-0.012 -1.97,1.507 -2.013,1.446 -2.128,1.627 -0.223,0.353 -0.119,36.177 -0.027,37.026 0.287,2.658 4.229,2.172 16.158,2.12 3.087,-0.013 2.864,-0.811 3.901,-1.104 l 1.099,1.117 c -1.84,2.192 -1.367,4.668 -1.365,19.86 0.002,18.108 -0.79,19.029 2.366,20.784 -1.483,0.794 -1.463,0.745 -2.403,2.203 -2.333,-3.098 -3.001,-2.182 -16.597,-2.193 -4.159,-0.003 -3.2,-2.211 -3.243,-26.796 -0.021,-11.871 0.771,-13.9 -1.759,-13.878 -17.061,0.152 -18.059,0.044 -18.157,-2.106 -0.04,-0.895 -0.01,-37.001 -0.009,-37.016 0.114,-2.119 -0.755,-1.704 -2.834,-1.699 C 3.682,98.831 3.746,98.671 0,98.5 Z"
   style="fill:#ffffff;fill-opacity:0.99"
   id="path9" />
            <path
   d="m 1023.999,200.5 v 41 c -6.32,-0.171 -6.238,-0.247 -12.509,-0.176 -3.956,0.045 -2.084,2.272 -2.605,18.228 -0.1,3.048 -7.095,1.884 -17.383,1.998 -4.658,0.051 -1.67,12.377 -2.593,19.079 -0.353,2.559 -16.084,0.866 -18.536,1.491 -2.995,0.764 -0.692,16.918 -1.802,19.423 -0.858,1.939 -28.847,0.571 -37.071,0.962 -1.598,0.077 -1.281,-0.64 -2.01,-1.004 -0.464,-8.511 -0.161,-8.46 -0.163,-17.001 0,-3.972 6.322,-2.498 17.201,-2.634 3.121,-0.039 1.76,-1.776 2.572,-18.445 0.164,-3.368 2.049,-1.621 17.402,-1.889 3.509,-0.061 2.252,-6.553 2.404,-18.013 0.045,-3.458 7.135,-2.186 17.577,-2.319 4.149,-0.052 1.917,-12.353 2.434,-18.644 0.177,-2.155 1.274,-1.164 16.577,-1.549 4.044,-0.102 3.408,-1.543 3.405,-5.505 -0.01,-9.912 1.023,-12.816 -2.399,-14.824 0.48,-0.263 0.499,0.258 1.006,-0.02 0.179,-0.098 0.102,-0.159 1.377,-2.148 2.298,2.821 3.271,2.264 15.116,1.99 z"
   style="fill:#ffffff;fill-opacity:1"
   id="path10" />
            <path
   d="m 490.503,322.631 c 3.463,1.993 2.311,2.812 2.323,6.87 0.011,3.698 0.168,12.353 -0.383,12.955 -1.71,1.865 -2.106,0.628 -6.942,0.643 -28.667,0.09 -28.703,0.448 -31.127,-0.123 -3.12,-0.736 -1.079,-15.366 -1.683,-18.515 -0.754,-3.923 -18.321,-0.01 -19.399,-2.868 -1.047,-2.778 -0.427,-2.89 -0.205,-37.099 0.021,-3.131 2,-2.749 17.394,-2.615 4.027,0.035 1.866,12.079 2.36,18.576 0.196,2.576 6.699,1.802 16.663,1.832 4.987,0.015 3.014,6.416 3.247,18.196 0.057,2.884 5.338,2.142 17.752,2.148 z"
   style="fill:#ffffff"
   id="path11" />
            <path
   d="m 770.101,123.501 c 0.125,-2.75 -0.353,-2.948 0.596,-3.79 1.429,-1.267 33.881,-0.539 36.827,-0.473 3.067,0.069 2.979,1.756 2.306,38.283 -0.084,4.535 -13.713,1.645 -18.459,2.568 -3.436,0.667 0.572,19.244 -2.933,20.138 -0.442,0.113 -16.655,0.099 -16.887,0.016 -1.685,-0.604 -1.433,-1.339 -1.45,-56.742 z"
   style="fill:#ffffff"
   id="path12" />
            <path
   d="m 63.491,98.729 c 9.49,0.019 16.294,-0.231 17.132,0.661 1.377,1.466 -0.403,33.327 0.959,39.082 -0.694,0.387 -1.388,0.775 -2.082,1.162 -9.731,-0.016 -9.649,-0.002 -17,0.008 l -1.099,-1.117 c -0.391,-2.532 -0.361,-2.532 -0.316,-32.024 0.006,-4.444 -1.14,-5.174 2.406,-7.772 z"
   style="fill:#ffffff"
   id="path13" />
            <path
   d="m 61.433,260.516 c 0.689,0.356 1.378,0.712 2.067,1.069 -0.172,0.14 -2.339,0.441 -2.351,2.908 -0.01,2.08 0.011,2.164 -10e-4,18.005 -0.014,16.811 -0.841,18.09 2.349,19.832 -1.444,0.782 -1.451,0.734 -2.386,2.15 -2.345,-2.907 -3.39,-2.047 -15.611,-1.958 -2.353,-1.975 -2.345,-1.927 -2.701,-2.327 -0.242,-0.144 -0.211,-0.165 -1.519,-1.682 -0.108,-35.326 -0.526,-36.905 2.224,-36.962 15.246,-0.316 15.368,0.248 17.929,-1.035 z"
   style="fill:#ffffff"
   id="path14" />
            <path
   d="m 500.496,98.766 c 12.77,-0.037 17.32,-1.065 17.352,2.722 0.285,34.188 0.845,34.308 -0.239,37.068 -0.672,1.711 -18.751,1.6 -19.352,0.075 -0.465,-1.178 -0.179,-35.749 -0.134,-38.174 0.872,-0.956 0.901,-0.79 2.373,-1.691 z"
   style="fill:#ffffff"
   id="path15" />
            <path
   d="m 988.986,177.504 c 0.546,3.672 1.84,2.759 5.514,2.765 11.066,0.016 11.055,-0.012 12.016,0.002 3.19,0.048 2.374,4.29 2.367,18.239 -1.275,1.989 -1.198,2.05 -1.377,2.148 -0.507,0.278 -0.526,-0.243 -1.006,0.02 -13.328,-0.031 -16.798,0.376 -17.513,-1.297 -0.957,-2.236 1.716,-14.112 -1.478,-18.939 0.828,-1.092 0.684,-1.113 1.477,-2.938 z"
   style="fill:#ffffff"
   id="path16" /><path
   d="m 999.93386,189.54579 c 0.54604,3.672 1.84004,2.759 5.51404,2.765 11.066,0.016 11.055,-0.012 12.016,0.002 3.19,0.048 2.374,4.29 2.367,18.239 -1.275,1.989 -1.198,2.05 -1.377,2.148 -0.507,0.278 -0.526,-0.243 -1.006,0.02 -13.328,-0.031 -16.798,0.376 -17.51304,-1.297 -0.957,-2.236 1.71604,-14.112 -1.478,-18.939 0.828,-1.092 0.684,-1.113 1.477,-2.938 z"
   style="clip-rule:evenodd;fill:#ffffff;fill-rule:evenodd;stroke-linejoin:round;stroke-miterlimit:2"
   id="path16-9" /><path
   d="m 977.16397,166.43373 c 0.546,3.672 1.84,2.759 5.514,2.765 11.066,0.016 11.055,-0.012 12.016,0.002 3.19,0.048 2.374,4.29 2.367,18.239 -1.275,1.989 -1.198,2.05 -1.377,2.148 -0.507,0.278 -0.526,-0.243 -1.006,0.02 -13.328,-0.031 -16.798,0.376 -17.513,-1.297 -0.957,-2.236 1.716,-14.112 -1.478,-18.939 0.828,-1.092 0.684,-1.113 1.477,-2.938 z"
   style="clip-rule:evenodd;fill:#ffffff;fill-rule:evenodd;stroke-linejoin:round;stroke-miterlimit:2"
   id="path16-9-8" />
            <path
   d="m 81.132,243.476 c -0.001,8.564 -0.104,8.5 0.468,16.99 -3.024,1.592 -3.176,1.096 -18.1,1.119 -0.689,-0.357 -1.378,-0.713 -2.067,-1.069 -0.07,-1.507 -0.822,-17.833 0.249,-18.853 0.917,-0.873 1.091,-0.761 15.819,-0.484 2.362,0.045 2.259,0.403 3.631,2.297 z"
   style="fill:#ffffff"
   id="path17" />
            <path
   d="m 63.501,180.286 c 4.999,0.01 9.998,0.02 14.997,0.03 0.493,0.265 0.908,-0.47 2.123,1.141 0.364,0.484 0.138,0.531 0.509,1.023 -0.018,13.786 -0.27,13.791 0.421,17.005 -0.774,0.111 -1.275,1.031 -2.048,1.141 -1.879,0.269 -14.731,0.051 -16.011,0.029 -3.228,-0.055 -2.404,-3.979 -2.394,-18.166 0.94,-1.458 0.92,-1.409 2.403,-2.203 z"
   style="fill:#ffffff"
   id="path18" />
            <path
   d="m 438.5,0 h 212 c -0.533,0.098 -0.467,1.185 -1,1.283 -0.002,0 -10e-4,0 -144,0 -60.733,0 -60.762,0.963 -65.952,0.012 C 439.002,1.195 439.046,0.1 438.5,0 Z"
   style="fill:#ffffff;fill-opacity:0.17"
   id="path19" />
            <path
   d="m 41.28,298.513 c 1.308,1.517 1.277,1.538 1.519,1.682 -1.613,2.134 -1.758,2.071 -1.739,2.301 0.122,1.512 0.398,1.418 0.285,2.989 -1.51,-0.91 -1.436,-0.909 -3.022,-1.673 -0.609,-0.51 -1.218,-1.019 -1.827,-1.528 2.338,-1.964 2.521,-1.643 4.784,-3.771 z"
   style="fill:#ffffff"
   id="path20" />
            <path
   d="m 42.799,300.195 c 0.356,0.4 0.348,0.352 2.701,2.327 -0.379,0.179 -0.757,0.358 -1.136,0.538 -2.805,2.244 -2.765,2.248 -3.019,2.425 0.113,-1.571 -0.163,-1.477 -0.285,-2.989 -0.019,-0.23 0.126,-0.167 1.739,-2.301 z"
   style="fill:#ffffff"
   id="path21" />
            <path
   d="m 80.899,178.555 c 0.865,0.586 1.73,1.172 2.595,1.758 -1.422,0.84 -1.433,0.773 -2.364,2.167 -0.371,-0.492 -0.145,-0.539 -0.509,-1.023 -1.215,-1.611 -1.63,-0.876 -2.123,-1.141 0.8,-0.587 1.6,-1.174 2.401,-1.761 z"
   style="fill:#ffffff"
   id="path22" />
            <path
   d="m 498.033,96.521 c 0.998,1.483 0.98,1.422 2.463,2.245 -1.472,0.901 -1.501,0.735 -2.373,1.691 -0.388,-0.329 -0.377,-0.283 -2.623,-1.642 1.523,-0.88 1.538,-0.822 2.533,-2.294 z"
   style="fill:#ffffff"
   id="path23" />
            <path
   d="m 81.582,138.472 c 0.177,0.202 0.116,0.126 1.915,1.13 -1.392,0.718 -1.353,0.639 -2.431,1.87 -0.416,-0.437 -0.339,-0.37 -1.566,-1.838 0.694,-0.387 1.388,-0.775 2.082,-1.162 z"
   style="fill:#ffffff"
   id="path24" />
        <path
   d="m 938.69013,292.53521 c -3.65438,0.65366 -2.70379,1.9203 -2.60193,5.59289 0.30887,11.0617 0.33654,11.04989 0.35076,12.01088 0.0457,3.19004 -4.21846,2.49892 -18.16165,2.90143 -2.02558,-1.21606 -2.08429,-1.1373 -2.1875,-1.31335 -0.29277,-0.49862 0.22745,-0.53291 -0.0495,-1.00498 -0.36028,-13.32317 -0.86898,-16.77972 0.78231,-17.54363 2.20694,-1.02223 14.1563,1.30108 18.88745,-2.03335 1.11583,0.79558 1.1326,0.65103 2.98009,1.39011 z"
   style="clip-rule:evenodd;fill:#ffffff;fill-rule:evenodd;stroke-linejoin:round;stroke-miterlimit:2"
   id="path16-9-2" /></g>
    </g></g><path
     style="fill:#ffffff;stroke:#ffffff;stroke-width:0.0709226;stroke-opacity:1"
     d="m 7.0726104,28.17727 0.019645,-1.049392 0.4680032,-0.02073 0.4680032,-0.02073 -0.00701,1.049104 -0.00701,1.049104 -0.4806421,0.02101 -0.480642,0.02102 z"
     id="path25"
     transform="scale(0.5)" /><path
     style="fill:#ffffff;stroke:#ffffff;stroke-width:0.0709226;stroke-opacity:1"
     d="m 8.1679146,31.371412 c -0.026005,-0.026 -0.047282,-0.506191 -0.047282,-1.067079 v -1.019797 l 0.4787273,0.02097 0.4787272,0.02097 0.019855,0.904956 c 0.024662,1.124043 -0.00233,1.187259 -0.5069876,1.187259 -0.206667,0 -0.3970351,-0.02128 -0.42304,-0.04728 z"
     id="path26"
     transform="scale(0.5)" /><path
     style="fill:#ffffff;stroke:#ffffff;stroke-width:0.0709226;stroke-opacity:1"
     d="m 9.1844713,31.982833 v -0.499698 l 0.4787272,0.02097 0.4787275,0.02097 0.0224,0.313463 c 0.04249,0.594619 0.0026,0.643992 -0.5202063,0.643992 H 9.1844713 Z"
     id="path27"
     transform="scale(0.5)" /><path
     style="fill:#ffffff;stroke:#ffffff;stroke-width:0.0709226;stroke-opacity:1"
     d="M 7.1277171,28.156256 V 27.16334 h 0.4255353 0.4255354 v 0.992916 0.992915 H 7.5532524 7.1277171 Z"
     id="path28"
     transform="scale(0.5)" /><path
     style="fill:#ffffff;stroke:#ffffff;stroke-width:0.0709226;stroke-opacity:1"
     d="m 8.1915555,30.354855 v -0.992916 h 0.4255353 0.4255354 v 0.855733 c 0,0.470654 -0.033038,0.917466 -0.073418,0.992916 -0.057452,0.107349 -0.1499932,0.137183 -0.4255354,0.137183 H 8.1915555 Z"
     id="path29"
     transform="scale(0.5)" /><path
     style="fill:#ffffff;stroke:#ffffff;stroke-width:0.0709226;stroke-opacity:1"
     d="M 9.1844713,35.248511 V 34.752053 H 9.63788 c 0.505076,0 0.539507,0.03168 0.539507,0.496458 0,0.464775 -0.03443,0.496458 -0.539507,0.496458 H 9.1844713 Z"
     id="path30"
     transform="scale(0.5)" /><path
     style="fill:#ffffff;stroke:#ffffff;stroke-width:0.0709226;stroke-opacity:1"
     d="m 8.1709142,37.899286 c -0.027655,-0.02765 -0.050281,-0.507731 -0.050281,-1.066838 V 35.815892 H 8.6189871 9.117341 L 9.097714,36.862 9.078087,37.908107 8.649641,37.928837 c -0.2356453,0.0114 -0.4510725,-0.0019 -0.4787272,-0.02955 z"
     id="path31"
     transform="scale(0.5)" /><path
     style="fill:#ffffff;stroke:#ffffff;stroke-width:0.0442837;stroke-opacity:1"
     d="m 3.4147079,19.583122 c 0,-0.632722 -0.011394,-0.617647 0.4468691,-0.591134 l 0.2175132,0.01259 0.01565,0.318782 c 0.0086,0.17533 0.00131,0.430853 -0.016221,0.567829 l -0.031872,0.249049 H 3.7306786 3.4147079 Z"
     id="path32" /><path
     style="fill:#ffffff;stroke:#ffffff;stroke-width:0.0442837;stroke-opacity:1"
     d="m 3.9764271,18.469011 c 0,-0.632722 -0.011394,-0.617647 0.4468691,-0.591134 l 0.2175132,0.01259 0.01565,0.318782 c 0.0086,0.17533 0.00131,0.430853 -0.016221,0.567829 l -0.031872,0.249049 H 4.2923978 3.9764271 Z"
     id="path32-8" /><path
     style="fill:#ffffff;stroke:#ffffff;stroke-width:0.0181702;stroke-opacity:1"
     d="m 7.0331318,28.688932 c 0.00655,-0.313785 0.01712,-0.799463 0.023494,-1.079284 l 0.01159,-0.508766 0.2907236,-0.01185 c 0.1598979,-0.0065 0.3831108,-0.0168 0.4960287,-0.02284 l 0.2053053,-0.01099 -0.01096,1.022206 c -0.00603,0.562213 -0.010517,1.047544 -0.00998,1.078513 l 9.848e-4,0.05631 -0.286181,0.01199 c -0.1573995,0.0066 -0.3866958,0.01722 -0.5095473,0.02361 l -0.2233663,0.01163 z m 0.131317,0.497424 -0.067298,-0.0071 -0.00642,-0.112517 -0.00642,-0.112517 -0.0035,0.122649 -0.0035,0.122649 0.077223,-0.0031 0.077223,-0.0031 z M 7.9494709,28.154755 V 27.182648 H 7.5497261 7.1499812 v 0.972107 0.972106 h 0.3997449 0.3997448 z m 0.031419,-1.037596 c -0.00604,-0.006 -0.02171,-0.0067 -0.034826,-0.0014 -0.014495,0.0058 -0.01019,0.01011 0.010978,0.01098 0.019154,7.89e-4 0.029886,-0.0035 0.023848,-0.0095 z"
     id="path33"
     transform="scale(0.5)" /><path
     style="fill:#ffffff;stroke:#ffffff;stroke-width:0.0181702;stroke-opacity:1"
     d="m 7.0469304,28.843496 c 0.00647,-0.21891 0.017189,-0.696892 0.023823,-1.062182 l 0.012062,-0.664165 0.4739703,-0.02049 c 0.2606837,-0.01127 0.4769708,-0.01749 0.480638,-0.01382 0.00367,0.0037 6.245e-4,0.480237 -0.00676,1.059044 l -0.013429,1.052377 -0.265551,0.01182 c -0.146053,0.0065 -0.3670171,0.01713 -0.4910314,0.02363 l -0.2254806,0.0118 z m 0.1939019,0.35799 c 0,-0.01968 -0.044865,-0.03828 -0.092337,-0.03828 -0.0291,0 -0.034854,-0.01325 -0.034854,-0.08028 0,-0.08886 -0.013591,-0.137763 -0.038284,-0.137763 -0.00892,0 -0.016226,0.06133 -0.016226,0.136277 v 0.136276 h 0.090851 c 0.049968,0 0.090851,-0.0073 0.090851,-0.01623 z M 7.9676411,28.154755 V 27.164478 H 7.5497261 7.131811 v 0.990277 0.990277 h 0.4179151 0.417915 z m 0.026479,-1.025362 c 0.00575,-0.0093 0.00175,-0.02229 -0.00888,-0.02887 -0.026891,-0.01662 -0.076898,0.0052 -0.063101,0.02748 0.014202,0.02298 0.058116,0.02382 0.071984,0.0014 z"
     id="path34"
     transform="scale(0.5)" /><path
     style="fill:#000000;stroke:#f2f2f2;stroke-width:0.0181702"
     d=""
     id="path35"
     transform="scale(0.5)" /><path
     style="fill:#000000;stroke:#f2f2f2;stroke-width:0.0181702"
     d=""
     id="path36"
     transform="scale(0.5)" /><path
     style="fill:#000000;stroke:#f2f2f2;stroke-width:0.0181702"
     d=""
     id="path37"
     transform="scale(0.5)" /><path
     style="fill:#000000;stroke:#f2f2f2;stroke-width:0.0181702"
     d=""
     id="path38"
     transform="scale(0.5)" /><path
     style="fill:#ffffff;stroke:#ffffff;stroke-width:0.0181702;stroke-opacity:1"
     d="m 7.7178006,29.240816 c 0.037476,-0.0039 0.0988,-0.0039 0.1362766,0 0.037476,0.0039 0.00681,0.0071 -0.068138,0.0071 -0.074952,0 -0.1056144,-0.0032 -0.068139,-0.0071 z"
     id="path39"
     transform="scale(0.5)" /><path
     style="fill:#ffffff;stroke:#ffffff;stroke-width:0.0181702;stroke-opacity:1"
     d="m 7.7543909,29.241014 c 0.02762,-0.0042 0.068503,-0.0041 0.090851,2.48e-4 0.022348,0.0043 -2.499e-4,0.0077 -0.050218,0.0076 -0.049968,-1.37e-4 -0.068253,-0.0037 -0.040633,-0.0078 z"
     id="path40"
     transform="scale(0.5)" /><path
     style="fill:#ffffff;stroke:#ffffff;stroke-width:0.0181702;stroke-opacity:1"
     d="m 7.7726571,29.241461 c 0.017679,-0.0046 0.042209,-0.0043 0.054511,6.73e-4 0.012302,0.005 -0.00216,0.0087 -0.032144,0.0084 -0.029981,-3.71e-4 -0.040046,-0.0044 -0.022367,-0.009 z"
     id="path41"
     transform="scale(0.5)" /><path
     style="fill:#ffffff;stroke:#ffffff;stroke-width:0.0181702;stroke-opacity:1"
     d="m 8.1536763,30.058085 -0.00433,-0.749522 0.040883,0.0021 c 0.030446,0.0016 0.032817,0.0042 0.00929,0.01038 -0.029256,0.0077 -0.031962,0.06299 -0.03655,0.747413 l -0.00495,0.739144 z"
     id="path42"
     transform="scale(0.5)" /><path
     style="fill:#ffffff;stroke:#ffffff;stroke-width:0.0181702;stroke-opacity:1"
     d="m 8.0831649,31.33 c -0.00856,-0.01749 -0.016342,-0.444716 -0.017303,-0.949394 l -0.00175,-0.917596 0.012694,0.826745 c 0.00698,0.45471 0.018934,0.881937 0.026561,0.949394 0.01399,0.123735 0.00833,0.149181 -0.020205,0.09085 z"
     id="path43"
     transform="scale(0.5)" /><path
     style="fill:#ffffff;stroke:#ffffff;stroke-width:0.0181702;stroke-opacity:1"
     d="m 8.353203,31.434464 c -0.092746,-0.008 -0.1801279,-0.02417 -0.1941812,-0.03583 -0.039022,-0.03239 -0.070527,-0.397255 -0.06986,-0.809067 3.505e-4,-0.216455 -0.0014,-0.23271 -0.011744,-0.109021 -0.00676,0.08081 -0.011871,-0.112837 -0.011514,-0.436086 6.354e-4,-0.575667 7.423e-4,-0.577292 0.010758,-0.163532 l 0.010117,0.417915 0.00403,-0.524528 0.00403,-0.524529 0.1317341,0.01083 c 0.072454,0.006 0.2924011,0.01615 0.4887718,0.02265 0.1963707,0.0065 0.3660079,0.01736 0.3769716,0.02414 0.032034,0.0198 0.036466,1.766367 0.00475,1.872697 -0.029413,0.09862 -0.096164,0.190888 -0.1627963,0.22504 -0.063669,0.03263 -0.3666643,0.04793 -0.581063,0.02933 z m 0.3181555,-0.0473 c -0.00604,-0.006 -0.02171,-0.0067 -0.034826,-0.0014 -0.014495,0.0058 -0.010189,0.01011 0.010978,0.01098 0.019155,7.89e-4 0.029886,-0.0035 0.023848,-0.0095 z m 0.2652044,-0.0522 c 0.096219,-0.06305 0.1400724,-0.259075 0.1362636,-0.609118 l -0.00208,-0.190788 -0.014867,0.233047 c -0.030142,0.472495 -0.069355,0.554836 -0.2830712,0.594406 l -0.087448,0.01619 0.1028593,-0.007 c 0.056572,-0.0038 0.1233251,-0.02038 0.1483388,-0.03677 z m -0.1792652,-0.02744 c 0.1374933,-0.02251 0.1845212,-0.06731 0.2096197,-0.19965 0.029392,-0.154984 0.054251,-0.725693 0.054432,-1.249654 l 1.647e-4,-0.476969 H 8.621769 8.2220242 v 0.972107 0.972107 l 0.2135,-1.05e-4 c 0.1174251,-5.8e-5 0.2622231,-0.0081 0.3217735,-0.01784 z M 8.203799,29.335885 c 0.010759,-0.01296 0.00423,-0.02064 -0.019042,-0.02239 -0.031601,-0.0024 -0.035387,0.0094 -0.035166,0.109767 3.886e-4,0.176084 0.025957,0.229569 0.032421,0.06782 0.00298,-0.07451 0.012781,-0.144343 0.021786,-0.155193 z"
     id="path44"
     transform="scale(0.5)" /><path
     style="fill:#ffffff;stroke:#ffffff;stroke-width:0.0181702;stroke-opacity:1"
     d="m 9.1524501,31.990158 c 0.00294,-0.284001 0.00989,-0.520904 0.015455,-0.526452 0.00556,-0.0055 0.230208,-8.4e-5 0.4992116,0.01214 l 0.4890973,0.02223 0.01466,0.08177 c 0.0081,0.04497 0.01645,0.224856 0.01864,0.399745 0.0043,0.345487 -0.0052,0.390182 -0.09737,0.45837 -0.07639,0.0565 -0.1694426,0.06768 -0.5672099,0.06813 l -0.3778299,4.33e-4 z m 0.8392397,0.437704 c 0.039223,-0.01184 0.087804,-0.04432 0.1090212,-0.0729 0.0357,-0.04808 0.03812,-0.07271 0.03599,-0.366646 -0.0013,-0.173309 -0.0076,-0.343211 -0.014,-0.377561 l -0.01172,-0.06245 -0.3403184,-0.01195 C 9.5834872,31.529784 9.37924,31.519574 9.3167799,31.513667 L 9.203216,31.502926 v 0.474543 0.474542 l 0.3588618,-0.0014 c 0.2185524,-8.5e-4 0.3865241,-0.0097 0.429612,-0.02275 z"
     id="path45"
     transform="scale(0.5)" /><path
     style="fill:#000000;stroke:#f2f2f2;stroke-width:0.0181702"
     d=""
     id="path46"
     transform="scale(0.5)" /><path
     style="fill:#ffffff;stroke:#ffffff;stroke-width:0.0181702;stroke-opacity:1"
     d="m 9.1448464,35.60213 c -0.00287,-0.09861 -0.00284,-0.337353 7.05e-5,-0.530543 l 0.0053,-0.351255 0.4126184,0.006 c 0.3691949,0.0054 0.420214,0.0098 0.4847927,0.04236 0.130439,0.06568 0.145868,0.116609 0.145868,0.481511 0,0.286413 -0.0037,0.324292 -0.03685,0.381575 -0.06959,0.120105 -0.127806,0.134056 -0.5938851,0.14231 l -0.4126889,0.0073 z m 0.8791096,0.07996 c 0.107428,-0.04679 0.115026,-0.07537 0.115026,-0.432631 0,-0.350263 -0.01198,-0.396238 -0.114514,-0.439405 -0.029129,-0.01226 -0.2056827,-0.02373 -0.4351348,-0.02825 l -0.3861172,-0.0076 v 0.476292 0.476293 l 0.377032,-0.0078 c 0.2922245,-0.0061 0.3920298,-0.01435 0.443708,-0.03686 z"
     id="path47"
     transform="scale(0.5)" /><path
     style="fill:#000000;stroke:#f2f2f2;stroke-width:0.0181702"
     d=""
     id="path48"
     transform="scale(0.5)" /><path
     style="fill:#000000;stroke:#f2f2f2;stroke-width:0.0181702"
     d=""
     id="path49"
     transform="scale(0.5)" /><path
     style="fill:#ffffff;stroke:#ffffff;stroke-width:0.0380285;stroke-opacity:1"
     d="m 4.5015092,17.713625 c 0,-0.462366 -0.011498,-0.451349 0.4509611,-0.431975 l 0.2195049,0.0092 0.015793,0.232952 c 0.00868,0.128124 0.00132,0.314849 -0.016369,0.414945 l -0.032164,0.181994 h -0.318862 -0.318864 z"
     id="path32-2" /><path
     style="fill:#ffffff;stroke:#ffffff;stroke-width:0.0380285;stroke-opacity:1"
     d="m 4.5644726,15.86838 c 0,-0.462366 -0.011498,-0.451349 0.4509611,-0.431975 l 0.2195049,0.0092 0.015793,0.232952 c 0.00868,0.128124 0.00132,0.314849 -0.016369,0.414945 l -0.032164,0.181994 h -0.318862 -0.318864 z"
     id="path32-2-8" /><path
     style="fill:#ffffff;stroke:#ffffff;stroke-width:0.0458884;stroke-opacity:1"
     d="m 3.9324506,15.190015 c 0,-0.587161 -0.013183,-0.573171 0.5170772,-0.548568 l 0.2516869,0.01168 0.018109,0.295828 c 0.00995,0.162704 0.00151,0.399828 -0.018769,0.52694 l -0.03688,0.231116 H 4.2980638 3.9324506 Z"
     id="path32-2-8-9" /><path
     style="fill:#ffffff;stroke:#ffffff;stroke-width:0.0458884;stroke-opacity:1"
     d="m 3.2507463,14.090083 c 0,-0.587161 -0.013183,-0.573171 0.5170772,-0.548568 l 0.2516869,0.01168 0.018109,0.295828 c 0.00995,0.162704 0.00151,0.399828 -0.018769,0.52694 l -0.03688,0.231116 H 3.6163595 3.2507463 Z"
     id="path32-2-8-9-5" /><path
     style="fill:#ffffff;stroke:#ffffff;stroke-width:0.0473415;stroke-opacity:1"
     d="m 3.6236441,14.15438 c 0,-0.626087 -0.013159,-0.61117 0.5161265,-0.584936 l 0.2512242,0.01245 0.018076,0.31544 c 0.00993,0.173491 0.00151,0.426335 -0.018735,0.561874 l -0.036812,0.246438 H 3.9885851 3.6236441 Z"
     id="path32-2-8-9-5-2" /></svg>
